<svg xmlns="http://www.w3.org/2000/svg" viewBox="0 0 50 50" fill="currentColor" aria-hidden="true">
  <!-- Figma "K+ Design" node 139:97 -->
  <path d="M21.0857 26.2021C20.9041 26.2021 20.7302 26.1299 20.6023 26.002L18.3406 23.7402C18.074 23.4736 18.074 23.04 18.3406 22.7734L18.8318 22.2822L18.5837 21.1387C18.5349 20.9111 18.6042 20.6748 18.7683 20.5107L19.8289 19.4502C20.0955 19.1836 20.5291 19.1836 20.7957 19.4502L24.8914 23.5459C25.0193 23.6738 25.0916 23.8477 25.0916 24.0293C25.0916 24.2109 25.0193 24.3848 24.8914 24.5127L23.8308 25.5732C23.6667 25.7373 23.4294 25.8076 23.2029 25.7578L22.0593 25.5098L21.5681 26.001C21.4412 26.1299 21.2673 26.2021 21.0857 26.2021ZM19.7908 23.2568L21.0857 24.5518L21.3572 24.2803C21.5212 24.1162 21.7585 24.0459 21.9851 24.0957L23.1287 24.3438L23.4421 24.0303L20.3132 20.9014L19.9998 21.2148L20.2478 22.3584C20.2966 22.5859 20.2273 22.8223 20.0632 22.9863L19.7908 23.2568Z" fill="currentColor"/>
  <path d="M12.7268 31.8057C12.7015 31.8057 12.677 31.8047 12.6517 31.8018C12.4456 31.7793 12.261 31.6641 12.1497 31.4883C10.9876 29.6553 11.2591 27.209 12.7972 25.6719L14.9212 23.6006C14.9241 23.5977 14.928 23.5938 14.931 23.5909L16.6165 22.0127L17.1204 21.5303C17.389 21.2735 17.8138 21.2774 18.0765 21.5401L22.8938 26.3575C23.0237 26.4873 23.096 26.6641 23.094 26.8477C23.0921 27.0313 23.0159 27.2071 22.8831 27.334L18.5706 31.4649C18.302 31.7227 17.8772 31.7178 17.6145 31.4551L15.4876 29.3282L13.2112 31.6045C13.0813 31.7344 12.9065 31.8057 12.7268 31.8057ZM15.4866 27.6787C15.6614 27.6787 15.8362 27.7452 15.97 27.8789L18.1077 30.0166L21.4329 26.8311L17.5823 22.9805L17.5589 23.003C17.5569 23.0049 17.555 23.0069 17.553 23.0078L15.8704 24.584L13.7581 26.6446C12.889 27.5137 12.5931 28.8018 12.9358 29.9473L15.0042 27.8789C15.136 27.7461 15.3118 27.6787 15.4866 27.6787Z" fill="currentColor"/>
  <path d="M31.6501 44.9336C30.6208 44.9336 29.6511 44.4336 29.0544 43.5967L21.1052 32.7891C20.8816 32.4854 20.947 32.0566 21.2507 31.833C21.5544 31.6094 21.9832 31.6748 22.2068 31.9785L30.1599 42.79C30.1619 42.793 30.1648 42.7959 30.1667 42.7998C30.5125 43.2861 31.0525 43.5654 31.6501 43.5654C32.1345 43.5654 32.5896 43.376 32.9333 43.0332C33.2771 42.6904 33.4656 42.2334 33.4656 41.748C33.4656 41.2627 33.2761 40.8066 32.9333 40.4629L22.5603 30.0908L21.1414 31.5098C20.8748 31.7764 20.4412 31.7764 20.1746 31.5098C19.908 31.2432 19.908 30.8096 20.1746 30.543L22.0769 28.6406C22.3435 28.374 22.7771 28.374 23.0437 28.6406L33.8992 39.4961C34.5007 40.0977 34.8318 40.8975 34.8318 41.748C34.8318 42.5986 34.5007 43.3984 33.8992 44C33.2986 44.6016 32.4998 44.9336 31.6501 44.9336Z" fill="currentColor"/>
  <path d="M19.2332 44.9336C18.4402 44.9336 17.6746 44.6182 17.1111 44.0547C15.9421 42.8858 15.9421 40.9834 17.1111 39.8145L21.6042 35.3213C21.8709 35.0547 22.3044 35.0547 22.571 35.3213C22.8376 35.5879 22.8376 36.0215 22.571 36.2881L18.0779 40.7813C17.4421 41.418 17.4421 42.4532 18.0779 43.0889C18.4109 43.4219 18.8513 43.5909 19.321 43.5655C19.7898 43.5401 20.2107 43.3243 20.5046 42.9571L24.7195 37.7041L22.738 35.0098C22.5144 34.7061 22.5798 34.2774 22.8835 34.0538C23.1882 33.8301 23.616 33.8956 23.8396 34.1993L26.1326 37.3165C26.3162 37.5655 26.3093 37.9073 26.115 38.1495L21.572 43.8125C21.0398 44.4766 20.2468 44.8838 19.3972 44.9307C19.3416 44.9317 19.2869 44.9336 19.2332 44.9336Z" fill="currentColor"/>
  <path d="M28.0642 35.3106C27.8894 35.3106 27.7146 35.2442 27.5808 35.1104L25.1824 32.7119C24.9158 32.4453 24.9158 32.0118 25.1824 31.7451L28.1589 28.7676L27.405 25.9541C27.3416 25.7178 27.4089 25.4668 27.5818 25.294L31.1785 21.6973C31.3513 21.5244 31.6033 21.4571 31.8386 21.5205L34.406 22.209C34.6423 22.2725 34.8259 22.4571 34.8894 22.6924C34.9529 22.9287 34.8855 23.1797 34.7126 23.3526L32.0916 25.9737L32.5154 27.5567L34.0984 27.9805L36.7195 25.3594C36.8923 25.1866 37.1443 25.1192 37.3796 25.1826C37.616 25.2461 37.7996 25.4297 37.863 25.666L38.5515 28.2334C38.615 28.4698 38.5476 28.7207 38.3748 28.8936L34.7781 32.4903C34.6052 32.6631 34.3533 32.7305 34.1179 32.667L31.1511 31.8721L29.6277 33.7715C29.3914 34.0655 28.9607 34.1133 28.6667 33.877C28.3718 33.6407 28.325 33.21 28.5613 32.916L30.364 30.669C30.5339 30.4571 30.8123 30.3662 31.074 30.4366L34.0906 31.2451L37.1287 28.2071L36.8494 27.1641L34.7869 29.2266C34.614 29.3994 34.363 29.4668 34.1267 29.4034L31.781 28.7754C31.5447 28.7119 31.3611 28.5274 31.2976 28.292L30.6697 25.9463C30.6062 25.71 30.6736 25.459 30.8464 25.2862L32.9089 23.2237L31.866 22.9444L28.8279 25.9825L29.5818 28.7959C29.6453 29.0323 29.5779 29.2832 29.405 29.4561L26.6326 32.2295L28.5476 34.1446C28.8142 34.4112 28.8142 34.8448 28.5476 35.1114C28.4138 35.2432 28.239 35.3106 28.0642 35.3106Z" fill="currentColor"/>
  <path d="M47.998 24.3574H40.5342C40.3525 24.3574 40.1777 24.2852 40.0488 24.1553L25 9.00391L9.95117 24.1553C9.82324 24.2842 9.64844 24.3574 9.46582 24.3574H2.00195C1.72559 24.3574 1.47656 24.1914 1.37109 23.9365C1.26465 23.6816 1.32227 23.3877 1.51758 23.1924L20.3027 4.27539C20.4307 4.14648 20.6055 4.07324 20.7881 4.07324H29.2119C29.3936 4.07324 29.5684 4.14551 29.6973 4.27539L32.2822 6.87891C32.5479 7.14648 32.5469 7.5791 32.2793 7.8457C32.0117 8.11133 31.5781 8.11035 31.3125 7.84277L28.9277 5.44141H21.0723L3.64453 22.9902H9.18164L24.5146 7.55176C24.6426 7.42285 24.8174 7.34961 25 7.34961C25.1826 7.34961 25.3564 7.42188 25.4854 7.55176L40.8184 22.9902H46.3555L35.126 11.6826C34.8604 11.415 34.8613 10.9814 35.1289 10.7158C35.3965 10.4502 35.8301 10.4512 36.0957 10.7188L48.4824 23.1914C48.6768 23.3877 48.7344 23.6807 48.6289 23.9356C48.5234 24.1914 48.2744 24.3574 47.998 24.3574Z" fill="currentColor"/>
  <path d="M33.9294 10.2022C33.7556 10.2022 33.5808 10.1357 33.448 10.0039C33.1804 9.73829 33.1785 9.30469 33.4441 9.03712L33.4578 9.02344C33.7234 8.75587 34.157 8.75391 34.4246 9.01954C34.6921 9.28516 34.6941 9.71876 34.4285 9.98633L34.4148 10C34.281 10.1348 34.1052 10.2022 33.9294 10.2022Z" fill="currentColor"/>
  <path d="M9.24609 36.7354C9.06641 36.7354 8.89063 36.6621 8.7627 36.5352C8.73145 36.5039 8.70313 36.4688 8.67773 36.4316C8.65332 36.3945 8.63184 36.3545 8.61523 36.3135C8.59766 36.2715 8.58496 36.2285 8.57617 36.1856C8.56738 36.1416 8.5625 36.0957 8.5625 36.0518C8.5625 36.0068 8.56738 35.9619 8.57617 35.918C8.58496 35.875 8.59766 35.8311 8.61523 35.79C8.63184 35.749 8.65332 35.709 8.67773 35.6719C8.70313 35.6348 8.73145 35.5996 8.7627 35.5684C8.79492 35.5371 8.8291 35.5088 8.86719 35.4834C8.9043 35.459 8.94336 35.4375 8.98535 35.4209C9.02637 35.4033 9.06934 35.3906 9.11328 35.3818C9.20117 35.3643 9.29199 35.3633 9.37988 35.3818C9.42383 35.3906 9.4668 35.4033 9.50781 35.4209C9.54883 35.4375 9.58887 35.459 9.62598 35.4834C9.66309 35.5088 9.69824 35.5371 9.72949 35.5684C9.76172 35.5996 9.79004 35.6348 9.81445 35.6719C9.83984 35.709 9.86035 35.749 9.87793 35.79C9.89453 35.8311 9.9082 35.875 9.91699 35.918C9.92578 35.9619 9.92969 36.0068 9.92969 36.0518C9.92969 36.0957 9.92578 36.1416 9.91699 36.1856C9.9082 36.2285 9.89453 36.2715 9.87793 36.3135C9.86035 36.3545 9.83984 36.3945 9.81445 36.4316C9.79004 36.4688 9.76172 36.5039 9.72949 36.5352C9.69824 36.5664 9.66309 36.5947 9.62598 36.6201C9.58887 36.6445 9.54883 36.666 9.50781 36.6826C9.4668 36.7002 9.42383 36.7129 9.37988 36.7217C9.33594 36.7305 9.29102 36.7354 9.24609 36.7354Z" fill="currentColor"/>
  <path d="M40.7539 48.6816H9.24609C8.86816 48.6816 8.5625 48.376 8.5625 47.998V39.0605C8.5625 38.6826 8.86816 38.377 9.24609 38.377C9.62402 38.377 9.92969 38.6826 9.92969 39.0605V47.3145H40.0693V29.5527C40.0693 29.1748 40.375 28.8691 40.7529 28.8691C41.1309 28.8691 41.4365 29.1748 41.4365 29.5527V47.998C41.4375 48.376 41.1309 48.6816 40.7539 48.6816Z" fill="currentColor"/>
  <path d="M9.24609 33.7266C8.86816 33.7266 8.5625 33.4209 8.5625 33.043V23.6738C8.5625 23.3193 8.83203 23.0273 9.17773 22.9932L24.5146 7.55176C24.6426 7.42285 24.8174 7.34961 25 7.34961C25.1826 7.34961 25.3564 7.42187 25.4854 7.55176L40.8223 22.9932C41.168 23.0273 41.4375 23.3184 41.4375 23.6738C41.4375 24.0518 41.1318 24.3574 40.7539 24.3574H40.5342C40.3525 24.3574 40.1777 24.2852 40.0488 24.1553L25 9.00391L9.95117 24.1553C9.94434 24.1621 9.9375 24.1689 9.92969 24.1758V33.043C9.92969 33.4209 9.62402 33.7266 9.24609 33.7266Z" fill="currentColor"/>
</svg>
